<?xml version="1.0" encoding="utf-8"?>
<svg viewBox="0 0 148 148" width="148px" height="148px" xmlns="http://www.w3.org/2000/svg" xmlns:bx="https://boxy-svg.com">
  <defs>
    <bx:grid x="0.287" y="0.287" width="3.863" height="3.863"/>
  </defs>
  <g transform="matrix(1.017665, 0, 0, 1.017658, 5.468932, 6.339382)" style="pointer-events: none;" bx:origin="0 0">
    <title>Tile</title>
    <path d="M 122.621 11.392 L 34.311 -4.18 C 23.895 -6.018 13.871 1.004 12.034 11.418 L -3.538 99.729 C -5.374 110.145 1.644 120.168 12.06 122.006 L 100.37 137.578 C 110.786 139.414 120.811 132.392 122.647 121.978 L 138.219 33.667 C 140.057 23.253 133.037 13.227 122.621 11.392" fill="#008CD4" bx:origin="0.000003 0.000002"/>
  </g>
  <title>A</title>
  <title>B</title>
  <path d="M 23.005 58.917 L 22.525 51.437 C 27.558 50.624 32.478 50.217 37.285 50.217 C 42.858 50.217 46.802 51.01 49.115 52.597 C 51.428 54.184 52.585 57.017 52.585 61.097 C 52.585 64.63 52.062 67.37 51.015 69.317 C 49.975 71.27 48.118 72.474 45.445 72.927 L 45.445 73.197 C 48.478 73.697 50.618 74.887 51.865 76.767 C 53.112 78.647 53.758 81.377 53.805 84.957 C 53.898 89.904 52.722 93.464 50.275 95.637 C 47.822 97.81 43.648 98.897 37.755 98.897 C 33.135 98.897 27.765 98.49 21.645 97.677 L 22.055 89.927 C 27.128 90.24 31.435 90.397 34.975 90.397 C 38.282 90.397 40.548 89.934 41.775 89.007 C 42.995 88.08 43.605 86.277 43.605 83.597 C 43.605 81.29 43.108 79.627 42.115 78.607 C 41.115 77.587 39.208 77.097 36.395 77.137 L 27.625 77.137 L 27.625 70.067 L 36.395 70.067 C 39.115 70.067 40.872 69.557 41.665 68.537 C 42.458 67.517 42.835 65.944 42.795 63.817 C 42.795 61.59 42.318 60.174 41.365 59.567 C 40.412 58.954 38.462 58.647 35.515 58.647 C 31.615 58.647 27.445 58.737 23.005 58.917 Z M 78.693 50.217 C 85.406 50.217 90.1 52.03 92.773 55.657 C 95.446 59.284 96.783 65.584 96.783 74.557 C 96.783 83.53 95.446 89.83 92.773 93.457 C 90.1 97.084 85.406 98.897 78.693 98.897 C 72.033 98.897 67.363 97.084 64.683 93.457 C 62.01 89.83 60.673 83.53 60.673 74.557 C 60.673 65.584 62.01 59.284 64.683 55.657 C 67.363 52.03 72.033 50.217 78.693 50.217 Z M 78.623 58.437 C 75.59 58.437 73.54 59.537 72.473 61.737 C 71.406 63.937 70.873 68.21 70.873 74.557 C 70.873 80.904 71.406 85.177 72.473 87.377 C 73.54 89.577 75.59 90.677 78.623 90.677 C 81.756 90.677 83.866 89.577 84.953 87.377 C 86.04 85.177 86.583 80.904 86.583 74.557 C 86.583 68.21 86.04 63.937 84.953 61.737 C 83.866 59.537 81.756 58.437 78.623 58.437 Z M 122.965 51.097 L 122.965 98.017 L 112.625 98.017 L 112.625 64.967 C 112.625 62.974 112.761 61.274 113.035 59.867 L 102.085 62.727 L 100.865 55.787 L 112.625 51.097 L 122.965 51.097 Z" style="white-space: pre; fill: rgb(255, 255, 255);" transform="matrix(0.983937, 0.178516, -0.178516, 0.983937, 14.471055, -11.709992)"/>
</svg>