<?xml version="1.0" encoding="utf-8"?>
<svg viewBox="0 0 148 148" width="148px" height="148px" xmlns="http://www.w3.org/2000/svg" xmlns:bx="https://boxy-svg.com">
  <defs>
    <bx:grid x="0.287" y="0.287" width="3.863" height="3.863"/>
  </defs>
  <g transform="matrix(1.017665, 0, 0, 1.017658, 5.468932, 6.124266)" bx:origin="0 0">
    <title>Tile</title>
    <path fill="#008CD4" d="M 122.621 11.392 L 34.311 -4.18 C 23.895 -6.018 13.871 1.004 12.034 11.418 L -3.538 99.729 C -5.374 110.145 1.644 120.168 12.06 122.006 L 100.37 137.578 C 110.786 139.414 120.811 132.392 122.647 121.978 L 138.219 33.667 C 140.057 23.253 133.037 13.227 122.621 11.392" bx:origin="0.000003 0.000002"/>
  </g>
  <title>A</title>
  <title>B</title>
  <g transform="matrix(0.076773, -0.084235, 0.084235, 0.076773, -101.63694, 236.391251)">
    <g id="layer1" transform="translate(0 -552.36)">
      <g transform="matrix(9.928053, 0, 0, 9.928053, -1313.417969, 1039.661621)">
        <path fill="#FFFFFF" d="M 384.949 -44.681 L 381.106 -44.681 L 363.51 -44.681 C 362.038 -44.681 360.834 -43.477 360.834 -42.006 L 360.834 -38.164 C 360.834 -36.693 362.038 -35.489 363.51 -35.489 L 372.359 -35.489 L 358.436 -20.304 L 365.483 -14.579 L 378.433 -28.64 L 378.433 -20.566 C 378.433 -19.095 379.637 -17.891 381.108 -17.891 L 384.951 -17.891 C 386.422 -17.891 387.626 -19.095 387.626 -20.566 L 387.626 -38.164 L 387.626 -42.006 C 387.624 -43.477 386.42 -44.681 384.949 -44.681" transform="matrix(-0.258819, 0.965926, -0.965926, -0.258819, 441.719264, -396.627149)"/>
      </g>
    </g>
  </g>
  <ellipse cx="51.189" cy="42.164" rx="31.047" ry="31.047" style="stroke: rgb(255, 255, 255); fill: rgb(255, 255, 255);"/>
  <ellipse cx="95.547" cy="105.944" rx="31.047" ry="31.047" style="stroke: rgb(255, 255, 255); fill: rgb(255, 255, 255);"/>
  <path d="M 104.539 105.554 L 104.539 105.79 C 107.44 106.041 109.507 107.028 110.747 108.753 C 111.986 110.461 112.604 112.93 112.604 116.158 C 112.604 120.078 111.61 122.749 109.619 124.176 C 107.626 125.603 104.219 126.315 99.392 126.315 C 92.18 126.315 86.711 126.165 82.981 125.868 L 82.981 86.933 C 86.335 86.635 91.21 86.486 97.604 86.486 C 102.793 86.486 106.381 87.192 108.373 88.603 C 110.364 90.013 111.358 92.694 111.358 96.643 C 111.358 99.466 110.825 101.597 109.759 103.038 C 108.678 104.495 106.939 105.335 104.539 105.554 Z M 91.397 92.907 L 91.397 102.851 L 97.652 102.851 C 99.752 102.851 101.194 102.513 101.978 101.839 C 102.747 101.15 103.129 99.81 103.129 97.819 C 103.129 95.86 102.714 94.568 101.883 93.939 C 101.054 93.298 99.492 92.975 97.204 92.975 L 91.397 92.907 Z M 91.397 108.541 L 91.397 119.826 L 97.933 119.826 C 100.3 119.826 101.9 119.481 102.73 118.791 C 103.56 118.085 103.977 116.668 103.977 114.535 C 103.977 112.2 103.546 110.625 102.682 109.81 C 101.806 109.01 100.143 108.586 97.698 108.541 L 91.397 108.541 Z" style="fill: rgb(0, 140, 212); white-space: pre;" transform="matrix(0.985042, 0.172316, -0.172316, 0.985042, 19.797315, -15.259644)"/>
  <path d="M 60.413 57.606 L 57.591 47.402 L 44.213 47.402 L 41.391 57.606 L 32.575 57.606 L 43.813 20.928 C 43.972 20.252 44.331 19.706 44.895 19.282 C 45.46 18.875 46.094 18.672 46.8 18.672 L 54.935 18.672 C 56.55 18.672 57.544 19.424 57.92 20.928 L 69.159 57.606 L 60.413 57.606 Z M 46.023 40.723 L 55.71 40.723 L 52.442 28.829 C 51.989 26.948 51.73 25.724 51.666 25.161 L 50.138 25.161 C 50.06 25.537 49.926 26.14 49.737 26.971 C 49.551 27.8 49.402 28.422 49.292 28.829 L 46.023 40.723 Z" style="fill: rgb(0, 140, 212); white-space: pre;" transform="matrix(0.984636, 0.174617, -0.174617, 0.984636, 7.44122, -8.296295)"/>
</svg>