<?xml version="1.0" encoding="utf-8"?>
<svg viewBox="0 0 148 148" width="148px" height="148px" xmlns="http://www.w3.org/2000/svg" xmlns:bx="https://boxy-svg.com">
  <defs>
    <bx:grid x="0.287" y="0.287" width="3.863" height="3.863"/>
  </defs>
  <g transform="matrix(1.017665, 0, 0, 1.017658, 5.468932, 6.339382)" bx:origin="0 0">
    <title>Tile</title>
    <path d="M 122.621 11.392 L 34.311 -4.18 C 23.895 -6.018 13.871 1.004 12.034 11.418 L -3.538 99.729 C -5.374 110.145 1.644 120.168 12.06 122.006 L 100.37 137.578 C 110.786 139.414 120.811 132.392 122.647 121.978 L 138.219 33.667 C 140.057 23.253 133.037 13.227 122.621 11.392" fill="#008CD4" style="pointer-events: none;" bx:origin="0.000003 0.000002"/>
  </g>
  <title>A</title>
  <title>B</title>
  <path d="M 5.278 88.144 L 1.776 107.939 C -0.098 118.539 7.038 128.739 17.637 130.61 L 107.499 146.457 C 118.098 148.325 128.304 141.506 130.178 130.908 L 133.793 111.223" style="fill: rgb(185, 185, 185);" transform="matrix(1, -0.000528, 0.000528, 1, -0.04654, 0.000792)" bx:origin="0.000003 0.000002"/>
  <path d="M 21.654 111.186 C 21.654 111.267 21.626 111.338 21.572 111.399 C 21.511 111.453 21.44 111.481 21.359 111.481 L 14.571 111.481 C 14.49 111.481 14.449 111.522 14.449 111.603 L 14.449 116.193 C 14.449 116.274 14.49 116.315 14.571 116.315 L 18.916 116.315 C 18.998 116.315 19.069 116.345 19.13 116.406 C 19.184 116.46 19.211 116.528 19.211 116.61 L 19.211 118.462 C 19.211 118.543 19.184 118.615 19.13 118.676 C 19.069 118.73 18.998 118.757 18.916 118.757 L 14.571 118.757 C 14.49 118.757 14.449 118.798 14.449 118.879 L 14.449 123.571 C 14.449 123.652 14.49 123.693 14.571 123.693 L 21.359 123.693 C 21.44 123.693 21.511 123.72 21.572 123.774 C 21.626 123.835 21.654 123.906 21.654 123.988 L 21.654 125.84 C 21.654 125.921 21.626 125.993 21.572 126.054 C 21.511 126.108 21.44 126.135 21.359 126.135 L 11.905 126.135 C 11.823 126.135 11.755 126.108 11.701 126.054 C 11.647 125.993 11.62 125.921 11.62 125.84 L 11.62 109.334 C 11.62 109.252 11.647 109.181 11.701 109.12 C 11.755 109.066 11.823 109.038 11.905 109.038 L 21.359 109.038 C 21.44 109.038 21.511 109.066 21.572 109.12 C 21.626 109.181 21.654 109.252 21.654 109.334 L 21.654 111.186 Z M 23.61 126.135 C 23.494 126.135 23.416 126.108 23.376 126.054 C 23.335 125.993 23.338 125.904 23.386 125.789 L 27.487 117.658 C 27.507 117.61 27.507 117.563 27.487 117.516 L 23.386 109.384 C 23.351 109.316 23.335 109.265 23.335 109.232 C 23.335 109.103 23.427 109.038 23.61 109.038 L 25.981 109.038 C 26.144 109.038 26.256 109.113 26.317 109.262 L 29.105 114.951 C 29.152 115.012 29.2 115.012 29.248 114.951 L 32.006 109.262 C 32.087 109.113 32.202 109.038 32.352 109.038 L 34.692 109.038 C 34.807 109.038 34.886 109.066 34.926 109.12 C 34.967 109.181 34.963 109.269 34.916 109.384 L 30.815 117.516 C 30.795 117.563 30.795 117.61 30.815 117.658 L 34.916 125.789 C 34.95 125.857 34.967 125.908 34.967 125.942 C 34.967 126.071 34.875 126.135 34.692 126.135 L 32.352 126.135 C 32.202 126.135 32.087 126.061 32.006 125.911 L 29.248 120.253 C 29.2 120.172 29.152 120.172 29.105 120.253 L 26.317 125.911 C 26.256 126.061 26.144 126.135 25.981 126.135 L 23.61 126.135 Z M 47.272 109.038 C 47.353 109.038 47.424 109.066 47.485 109.12 C 47.54 109.181 47.567 109.252 47.567 109.334 L 47.567 111.216 C 47.567 111.298 47.54 111.366 47.485 111.42 C 47.424 111.474 47.353 111.501 47.272 111.501 L 43.486 111.501 C 43.404 111.501 43.364 111.542 43.364 111.623 L 43.364 125.84 C 43.364 125.921 43.337 125.993 43.282 126.054 C 43.221 126.108 43.15 126.135 43.069 126.135 L 40.83 126.135 C 40.748 126.135 40.677 126.108 40.616 126.054 C 40.562 125.993 40.535 125.921 40.535 125.84 L 40.535 111.623 C 40.535 111.542 40.494 111.501 40.413 111.501 L 36.769 111.501 C 36.688 111.501 36.621 111.474 36.566 111.42 C 36.505 111.366 36.474 111.298 36.474 111.216 L 36.474 109.334 C 36.474 109.252 36.505 109.181 36.566 109.12 C 36.621 109.066 36.688 109.038 36.769 109.038 L 47.272 109.038 Z M 59.925 111.186 C 59.925 111.267 59.898 111.338 59.844 111.399 C 59.783 111.453 59.712 111.481 59.63 111.481 L 52.842 111.481 C 52.761 111.481 52.72 111.522 52.72 111.603 L 52.72 116.193 C 52.72 116.274 52.761 116.315 52.842 116.315 L 57.188 116.315 C 57.269 116.315 57.34 116.345 57.401 116.406 C 57.455 116.46 57.483 116.528 57.483 116.61 L 57.483 118.462 C 57.483 118.543 57.455 118.615 57.401 118.676 C 57.34 118.73 57.269 118.757 57.188 118.757 L 52.842 118.757 C 52.761 118.757 52.72 118.798 52.72 118.879 L 52.72 123.571 C 52.72 123.652 52.761 123.693 52.842 123.693 L 59.63 123.693 C 59.712 123.693 59.783 123.72 59.844 123.774 C 59.898 123.835 59.925 123.906 59.925 123.988 L 59.925 125.84 C 59.925 125.921 59.898 125.993 59.844 126.054 C 59.783 126.108 59.712 126.135 59.63 126.135 L 50.176 126.135 C 50.095 126.135 50.026 126.108 49.972 126.054 C 49.919 125.993 49.891 125.921 49.891 125.84 L 49.891 109.334 C 49.891 109.252 49.919 109.181 49.972 109.12 C 50.026 109.066 50.095 109.038 50.176 109.038 L 59.63 109.038 C 59.712 109.038 59.783 109.066 59.844 109.12 C 59.898 109.181 59.925 109.252 59.925 109.334 L 59.925 111.186 Z M 62.706 126.135 C 62.624 126.135 62.556 126.108 62.502 126.054 C 62.447 125.993 62.421 125.921 62.421 125.84 L 62.421 109.334 C 62.421 109.252 62.447 109.181 62.502 109.12 C 62.556 109.066 62.624 109.038 62.706 109.038 L 64.955 109.038 C 65.117 109.038 65.232 109.113 65.301 109.262 L 70.643 119.887 C 70.664 119.948 70.694 119.975 70.735 119.968 C 70.776 119.961 70.796 119.924 70.796 119.856 L 70.796 109.334 C 70.796 109.252 70.822 109.181 70.877 109.12 C 70.938 109.066 71.01 109.038 71.091 109.038 L 73.31 109.038 C 73.391 109.038 73.458 109.066 73.513 109.12 C 73.574 109.181 73.605 109.252 73.605 109.334 L 73.605 125.84 C 73.605 125.921 73.574 125.993 73.513 126.054 C 73.458 126.108 73.391 126.135 73.31 126.135 L 71.061 126.135 C 70.918 126.135 70.806 126.061 70.725 125.911 L 65.351 115.246 C 65.331 115.178 65.301 115.147 65.26 115.155 C 65.219 115.162 65.199 115.198 65.199 115.267 L 65.229 125.84 C 65.229 125.921 65.199 125.993 65.138 126.054 C 65.083 126.108 65.016 126.135 64.934 126.135 L 62.706 126.135 Z M 81.511 126.329 C 80.453 126.329 79.516 126.138 78.702 125.759 C 77.888 125.372 77.264 124.825 76.83 124.12 C 76.389 123.415 76.168 122.597 76.168 121.668 L 76.168 121.027 C 76.168 120.945 76.196 120.877 76.25 120.823 C 76.311 120.769 76.382 120.742 76.463 120.742 L 78.662 120.742 C 78.743 120.742 78.811 120.769 78.865 120.823 C 78.92 120.877 78.946 120.945 78.946 121.027 L 78.946 121.515 C 78.946 122.22 79.191 122.79 79.679 123.225 C 80.168 123.665 80.819 123.886 81.633 123.886 C 82.386 123.886 82.97 123.693 83.383 123.306 C 83.798 122.912 84.004 122.397 84.004 121.759 C 84.004 121.325 83.892 120.948 83.668 120.63 C 83.438 120.311 83.116 120.016 82.702 119.744 C 82.288 119.48 81.64 119.12 80.758 118.666 C 79.768 118.157 78.971 117.696 78.366 117.282 C 77.763 116.867 77.257 116.342 76.85 115.704 C 76.443 115.073 76.239 114.3 76.239 113.384 C 76.239 111.987 76.705 110.88 77.634 110.066 C 78.564 109.252 79.791 108.845 81.318 108.845 C 82.376 108.845 83.312 109.046 84.126 109.446 C 84.941 109.839 85.571 110.402 86.019 111.135 C 86.467 111.868 86.691 112.709 86.691 113.659 L 86.691 114.167 C 86.691 114.249 86.664 114.317 86.609 114.371 C 86.548 114.432 86.477 114.463 86.396 114.463 L 84.177 114.463 C 84.096 114.463 84.029 114.432 83.974 114.371 C 83.913 114.317 83.882 114.249 83.882 114.167 L 83.882 113.699 C 83.882 113 83.652 112.424 83.19 111.969 C 82.722 111.514 82.081 111.288 81.267 111.288 C 80.569 111.288 80.019 111.471 79.618 111.837 C 79.225 112.203 79.028 112.712 79.028 113.364 C 79.028 113.804 79.134 114.178 79.343 114.483 C 79.554 114.795 79.877 115.091 80.31 115.368 C 80.738 115.64 81.383 115.996 82.244 116.437 C 83.418 117.109 84.283 117.631 84.839 118.004 C 85.388 118.378 85.856 118.862 86.243 119.459 C 86.624 120.05 86.813 120.775 86.813 121.637 C 86.813 123.055 86.335 124.191 85.378 125.046 C 84.415 125.901 83.126 126.329 81.511 126.329 Z M 89.571 126.135 C 89.489 126.135 89.421 126.108 89.367 126.054 C 89.313 125.993 89.286 125.921 89.286 125.84 L 89.286 109.334 C 89.286 109.252 89.313 109.181 89.367 109.12 C 89.421 109.066 89.489 109.038 89.571 109.038 L 91.82 109.038 C 91.901 109.038 91.973 109.066 92.034 109.12 C 92.088 109.181 92.115 109.252 92.115 109.334 L 92.115 125.84 C 92.115 125.921 92.088 125.993 92.034 126.054 C 91.973 126.108 91.901 126.135 91.82 126.135 L 89.571 126.135 Z M 100.269 126.359 C 99.197 126.359 98.251 126.138 97.429 125.698 C 96.608 125.257 95.974 124.632 95.526 123.825 C 95.078 123.018 94.855 122.085 94.855 121.027 L 94.855 114.147 C 94.855 113.102 95.078 112.176 95.526 111.369 C 95.974 110.562 96.608 109.941 97.429 109.507 C 98.251 109.066 99.197 108.845 100.269 108.845 C 101.361 108.845 102.317 109.066 103.138 109.507 C 103.966 109.941 104.607 110.562 105.062 111.369 C 105.517 112.176 105.744 113.102 105.744 114.147 L 105.744 121.027 C 105.744 122.085 105.517 123.018 105.062 123.825 C 104.607 124.632 103.966 125.257 103.138 125.698 C 102.317 126.138 101.361 126.359 100.269 126.359 Z M 100.269 123.917 C 101.069 123.917 101.711 123.659 102.192 123.143 C 102.673 122.627 102.915 121.963 102.915 121.149 L 102.915 114.066 C 102.915 113.238 102.673 112.567 102.192 112.051 C 101.711 111.542 101.069 111.288 100.269 111.288 C 99.488 111.288 98.864 111.542 98.396 112.051 C 97.921 112.567 97.684 113.238 97.684 114.066 L 97.684 121.149 C 97.684 121.963 97.921 122.627 98.396 123.143 C 98.864 123.659 99.488 123.917 100.269 123.917 Z M 108.793 126.135 C 108.711 126.135 108.643 126.108 108.589 126.054 C 108.534 125.993 108.508 125.921 108.508 125.84 L 108.508 109.334 C 108.508 109.252 108.534 109.181 108.589 109.12 C 108.643 109.066 108.711 109.038 108.793 109.038 L 111.042 109.038 C 111.204 109.038 111.319 109.113 111.388 109.262 L 116.73 119.887 C 116.751 119.948 116.781 119.975 116.822 119.968 C 116.863 119.961 116.883 119.924 116.883 119.856 L 116.883 109.334 C 116.883 109.252 116.909 109.181 116.964 109.12 C 117.025 109.066 117.097 109.038 117.178 109.038 L 119.397 109.038 C 119.478 109.038 119.545 109.066 119.6 109.12 C 119.661 109.181 119.692 109.252 119.692 109.334 L 119.692 125.84 C 119.692 125.921 119.661 125.993 119.6 126.054 C 119.545 126.108 119.478 126.135 119.397 126.135 L 117.148 126.135 C 117.005 126.135 116.893 126.061 116.812 125.911 L 111.438 115.246 C 111.418 115.178 111.388 115.147 111.347 115.155 C 111.306 115.162 111.286 115.198 111.286 115.267 L 111.316 125.84 C 111.316 125.921 111.286 125.993 111.225 126.054 C 111.17 126.108 111.103 126.135 111.021 126.135 L 108.793 126.135 Z" style="white-space: pre; fill: rgb(88, 88, 88);" transform="matrix(0.984556, 0.17507, -0.17507, 0.984556, 21.602575, -9.678149)"/>
  <path d="M 25.595 43.763 L 25.115 36.283 C 30.148 35.47 35.068 35.063 39.875 35.063 C 45.448 35.063 49.392 35.856 51.705 37.443 C 54.018 39.03 55.175 41.863 55.175 45.943 C 55.175 49.476 54.652 52.216 53.605 54.163 C 52.565 56.116 50.708 57.32 48.035 57.773 L 48.035 58.043 C 51.068 58.543 53.208 59.733 54.455 61.613 C 55.702 63.493 56.348 66.223 56.395 69.803 C 56.488 74.75 55.312 78.31 52.865 80.483 C 50.412 82.656 46.238 83.743 40.345 83.743 C 35.725 83.743 30.355 83.336 24.235 82.523 L 24.645 74.773 C 29.718 75.086 34.025 75.243 37.565 75.243 C 40.872 75.243 43.138 74.78 44.365 73.853 C 45.585 72.926 46.195 71.123 46.195 68.443 C 46.195 66.136 45.698 64.473 44.705 63.453 C 43.705 62.433 41.798 61.943 38.985 61.983 L 30.215 61.983 L 30.215 54.913 L 38.985 54.913 C 41.705 54.913 43.462 54.403 44.255 53.383 C 45.048 52.363 45.425 50.79 45.385 48.663 C 45.385 46.436 44.908 45.02 43.955 44.413 C 43.002 43.8 41.052 43.493 38.105 43.493 C 34.205 43.493 30.035 43.583 25.595 43.763 Z M 81.283 35.063 C 87.996 35.063 92.69 36.876 95.363 40.503 C 98.036 44.13 99.373 50.43 99.373 59.403 C 99.373 68.376 98.036 74.676 95.363 78.303 C 92.69 81.93 87.996 83.743 81.283 83.743 C 74.623 83.743 69.953 81.93 67.273 78.303 C 64.6 74.676 63.263 68.376 63.263 59.403 C 63.263 50.43 64.6 44.13 67.273 40.503 C 69.953 36.876 74.623 35.063 81.283 35.063 Z M 81.213 43.283 C 78.18 43.283 76.13 44.383 75.063 46.583 C 73.996 48.783 73.463 53.056 73.463 59.403 C 73.463 65.75 73.996 70.023 75.063 72.223 C 76.13 74.423 78.18 75.523 81.213 75.523 C 84.346 75.523 86.456 74.423 87.543 72.223 C 88.63 70.023 89.173 65.75 89.173 59.403 C 89.173 53.056 88.63 48.783 87.543 46.583 C 86.456 44.383 84.346 43.283 81.213 43.283 Z M 125.555 35.943 L 125.555 82.863 L 115.215 82.863 L 115.215 49.813 C 115.215 47.82 115.351 46.12 115.625 44.713 L 104.675 47.573 L 103.455 40.633 L 115.215 35.943 L 125.555 35.943 Z" style="white-space: pre; fill: rgb(255, 255, 255);" transform="matrix(0.983937, 0.178516, -0.178516, 0.983937, 11.807426, -12.415768)"/>
</svg>